# AST/ASF file generated using VICON BodyLanguage
# -----------------------------------------------
:version 1.10
:name VICON
:units
  mass 1.0
  length 0.45
  angle deg
:documentation
   .ast/.asf automatically generated from VICON data using
   VICON BodyBuilder and BodyLanguage model FoxedUp or BRILLIANT.MOD
:root
   order TX TY TZ RX RY RZ
   axis XYZ
   position 0 0 0  
   orientation 0 0 0 
:bonedata
  begin
     id 1 
     name lhipjoint
     direction 0.567149 -0.783011 0.255413 
     length 2.28399 
     axis 0 0 0  XYZ
  end
  begin
     id 2 
     name lfemur
     direction 0.34202 -0.939693 0  
     length 7.34031  
     axis 0 0 20  XYZ
    dof rx ry rz
    limits (-160.0 20.0)
           (-70.0 70.0)
           (-60.0 70.0)
  end
  begin
     id 3 
     name ltibia
     direction 0.34202 -0.939693 0   
     length 6.9833   
     axis 0 0 20   XYZ
    dof rx
    limits (-10.0 170.0)
  end
  begin
     id 4 
     name lfoot
     direction 0.136498 -0.375025 0.91691   
     length 2.33665   
     axis -90 7.62852e-016 20   XYZ
    dof rx rz
    limits (-45.0 90.0)
           (-70.0 20.0)
  end
  begin
     id 5 
     name ltoes
     direction 1.5367e-011 -4.21617e-011 1   
     length 1.15039   
     axis -90 7.62852e-016 20   XYZ
    dof rx
    limits (-90.0 20.0)
  end
  begin
     id 6 
     name rhipjoint
     direction -0.602854 -0.758518 0.247423   
     length 2.35775  
     axis 0 0 0  XYZ 
  end
  begin
     id 7 
     name rfemur
     direction -0.34202 -0.939693 0   
     length 7.43932   
     axis 0 0 -20   XYZ
    dof rx ry rz
    limits (-160.0 20.0)
           (-70.0 70.0)
           (-70.0 60.0)
  end
  begin
     id 8 
     name rtibia
     direction -0.34202 -0.939693 0   
     length 7.11893   
     axis 0 0 -20   XYZ
    dof rx
    limits (-10.0 170.0)
 end
 begin
     id 9 
     name rfoot
     direction -0.131771 -0.362037 0.922803   
     length 2.53019  
     axis -90 -7.62852e-016 -20   XYZ
    dof rx rz
    limits (-45.0 90.0)
           (-20.0 70.0)
  end
  begin
     id 10 
     name rtoes
     direction -1.53733e-011 -4.21932e-011 1   
     length 1.24596   
     axis -90 -7.62852e-016 -20   XYZ
    dof rx
    limits (-90.0 20.0)
  end
  begin
     id 11 
     name lowerback
     direction 0.0235427 0.999023 -0.0374125   
     length 2.21768   
     axis 0 0 0   XYZ
    dof rx ry rz
    limits (-20.0 45.0)
           (-30.0 30.0)
           (-30.0 30.0)
  end
  begin
     id 12 
     name upperback
     direction 0.0302156 0.996818 -0.073759   
     length 2.20352   
     axis 0 0 0   XYZ
    dof rx ry rz
    limits (-20.0 45.0)
           (-30.0 30.0)
           (-30.0 30.0)
  end
  begin
     id 13 
     name thorax
     direction 0.0187169 0.998235 -0.0563532   
     length 2.22103   
     axis 0 0 0   XYZ
    dof rx ry rz
    limits (-20.0 45.0)
           (-30.0 30.0)
           (-30.0 30.0)
  end
  begin
     id 14 
     name lowerneck
     direction -0.119528 0.987423 0.103481   
     length 1.72948   
     axis 0 0 0   XYZ
    dof rx ry rz
    limits (-20.0 45.0)
           (-30.0 30.0)
           (-30.0 30.0)
  end
  begin
     id 15 
     name upperneck
     direction 0.248049 0.963095 -0.104496   
     length 1.74979   
     axis 0 0 0   XYZ
    dof rx ry rz
    limits (-20.0 45.0)
           (-30.0 30.0)
           (-30.0 30.0)
  end
  begin
     id 16
     name head
     direction 0.0903589 0.994284 -0.056876  
     length 1.78268  
     axis 0 0 0   XYZ
    dof rx ry rz
    limits (-20.0 45.0)
           (-30.0 30.0)
           (-30.0 30.0)
  end
  begin
     id 17 
     name lclavicle
     direction 0.946008 0.242039 -0.215608  
     length 3.80783  
     axis 0 0 0   XYZ
    dof ry rz
    limits (-20.0 10.0)
           (0.0 20.0)
  end
  begin
     id 18 
     name lhumerus
     direction 1 -4.48991e-011 -2.25695e-027   
     length 4.83125   
     axis 180 -30 -90   XYZ
    dof rx ry rz
    limits (-60.0 90.0)
           (-90.0 90.0)
           (-90.0 90.0)
  end
  begin
     id 19
     name lradius
     direction 0.999991 0.00366712 -0.00211721   
     length 3.00391   
     axis 180 -30 -90   XYZ
    dof rx
    limits (-10.0 170.0)
  end
  begin
     id 20
     name lwrist
     direction 0.999991 0.00393016 -0.00141978   
     length 1.50195   
     axis -1.00488e-014 90 90   XYZ
    dof ry
    limits (-180.0 0.0)
 end
  begin
     id 21 
     name lhand
     direction 1 -4.49123e-011 2.72098e-026   
     length 1.2717   
     axis -1.73687e-014 90 90   XYZ
    dof rx rz
    limits (-90.0 90.0)
           (-45.0 45.0)
  end
  begin
     id 22 
     name lfingers
     direction 1 -4.48678e-011 5.4479e-026   
     length 1.02528   
     axis -3.47372e-014 90 90   XYZ
    dof rx
    limits (0.0 90.0)
  end
  begin
     id 23
     name lthumb
     direction 0.707107 -6.34851e-011 0.707107   
     length 1.4721   
     axis -90 45 -1.62303e-014   XYZ
    dof rx rz
    limits (-45.0 45.0)
           (-45.0 45.0)
  end
  begin
     id 24 
     name rclavicle
     direction -0.981723 0.189447 -0.0181673   
     length 3.74989  
     axis 0 0 0   XYZ 
    dof ry rz
    limits (-10.0 20.0)
           (-20.0 0.0)
  end
  begin
     id 25 
     name rhumerus
     direction -1 -4.48985e-011 2.38206e-027  
     length 4.61118   
     axis 180 30 90   XYZ
    dof rx ry rz
    limits (-90.0 60.0)
           (-90.0 90.0)
           (-90.0 90.0)
  end
  begin
     id 26 
     name rradius
     direction -1 -4.48977e-011 7.41019e-027   
     length 2.91491   
     axis 180 30 90   XYZ
    dof rx
    limits (-10.0 170.0)
  end
  begin
     id 27 
     name rwrist
     direction -1 -4.48549e-011 1.3624e-026   
     length 1.45745   
     axis -1.00488e-014 -90 -90   XYZ
    dof ry
    limits (-180.0 0.0)
  end
  begin
     id 28
     name rhand
     direction -1 -4.49107e-011 2.72109e-026   
     length 1.30769   
     axis -1.73687e-014 -90 -90   XYZ
    dof rx rz
    limits (-90.0 90.0)
           (-45.0 45.0)
  end
  begin
     id 29
     name rfingers
     direction -1 -4.48919e-011 5.44468e-026   
     length 1.05429   
     axis -3.47372e-014 -90 -90   XYZ
    dof rx
    limits (0.0 90.0)
  end
  begin
     id 30
     name rthumb
     direction -0.707107 -6.35315e-011 0.707107   
     length 1.51376   
     axis -90 -45 1.62303e-014   XYZ
    dof rx rz
    limits (-45.0 45.0)
           (-45.0 45.0)
  end
:hierarchy
  begin
    root lhipjoint rhipjoint lowerback
    lhipjoint lfemur
    lfemur ltibia
    ltibia lfoot
    lfoot ltoes
    rhipjoint rfemur
    rfemur rtibia
    rtibia rfoot
    rfoot rtoes
    lowerback upperback
    upperback thorax
    thorax lowerneck lclavicle rclavicle
    lowerneck upperneck
    upperneck head
    lclavicle lhumerus
    lhumerus lradius
    lradius lwrist
    lwrist lhand lthumb
    lhand lfingers
    rclavicle rhumerus
    rhumerus rradius
    rradius rwrist
    rwrist rhand rthumb
    rhand rfingers
  end

#!OML:ASF X:\für Bonn\!DataBase\2005_08_11_Bastian_Final\c3d\Bastian.ASF
:FULLY-SPECIFIED
:DEGREES
1
root -11.0472 17.4981 10.6978 897.46 33.3541 -170.336
lowerback 27.5805 -6.09746 4.74782
upperback 17.9125 -2.27702 7.27456
thorax 5.19516 0.58464 6.11809
lowerneck -18.1437 -11.0658 -20.5363
upperneck -7.20922 -10.3598 25.5069
head 3.63472 -3.65671 10.7092
rclavicle -9.54166e-015 -6.67916e-014
rhumerus -20.109 5.9299 -77.8392
rradius 47.1242
rwrist -0.411417
rhand -19.1347 3.97091
rfingers 7.12502
rthumb 7.17511 -25.8875
lclavicle -9.54166e-015 -6.67916e-014
lhumerus -9.9509 -15.1022 89.8833
lradius 26.4802
lwrist 13.8508
lhand -15.7903 -8.78606
lfingers 7.12502
lthumb 10.4024 20.9366
rfemur -9.71114 -14.439 29.21
rtibia 45.0165
rfoot -10.8533 11.9085
rtoes -8.3043
lfemur -24.5309 1.87449 -6.55342
ltibia 75.1288
lfoot -0.477862 -10.1971
ltoes -22.851
2
root -11 17.5043 10.6488 897.485 33.5278 -170.224
lowerback 27.6482 -6.08459 4.8892
upperback 17.9611 -2.20526 7.2835
thorax 5.21091 0.640996 6.03702
lowerneck -18.1363 -11.058 -20.5775
upperneck -7.21289 -10.3398 25.4064
head 3.6188 -3.65056 10.6833
rclavicle -8.74653e-015 -3.02153e-014
rhumerus -19.7396 6.0072 -77.8258
rradius 47.7791
rwrist -0.423925
rhand -19.2015 4.09012
rfingers 7.12502
rthumb 7.11062 -25.7704
lclavicle -8.74653e-015 -3.02153e-014
lhumerus -10.2546 -15.0332 89.9621
lradius 26.2036
lwrist 13.9262
lhand -15.6211 -8.67111
lfingers 7.12502
lthumb 10.5657 21.0433
rfemur -9.37904 -14.4732 29.2189
rtibia 44.983
rfoot -10.8023 12.2231
rtoes -8.42937
lfemur -25.1339 2.0136 -6.72373
ltibia 74.1809
lfoot -0.332211 -10.7931
ltoes -22.1363
3
root -10.9531 17.5092 10.5997 897.509 33.6772 -170.115
lowerback 27.7282 -6.06947 5.06822
upperback 17.972 -2.12891 7.27764
thorax 5.17237 0.700595 5.91421
lowerneck -18.0214 -11.0474 -20.5951
upperneck -7.27074 -10.3344 25.3141
head 3.57389 -3.66021 10.6557
rclavicle -2.06736e-014 4.77083e-014
rhumerus -19.4421 6.04396 -77.8474
rradius 48.4106
rwrist -0.469745
rhand -19.2264 4.22632
rfingers 7.12502
rthumb 7.08661 -25.635
lclavicle -2.06736e-014 4.77083e-014
lhumerus -10.6375 -15.1359 90.048
lradius 25.978
lwrist 14.0057
lhand -15.4988 -8.52628
lfingers 7.12502
lthumb 10.6836 21.1821
rfemur -9.03201 -14.5173 29.2298
rtibia 44.9342
rfoot -10.748 12.4971
rtoes -8.49949
lfemur -25.7014 2.12924 -6.9065
ltibia 73.1315
lfoot -0.0805468 -11.3035
ltoes -21.748
4
root -10.9064 17.5166 10.5484 897.552 33.8508 -170.001
lowerback 27.7656 -6.06208 5.25401
upperback 17.9886 -2.07014 7.258
thorax 5.16083 0.75138 5.77502
lowerneck -17.8984 -11.0157 -20.6136
upperneck -7.30648 -10.3061 25.2237
head 3.52937 -3.65959 10.6328
rclavicle -8.74653e-014 -1.18476e-013
rhumerus -19.1398 6.07958 -77.8856
rradius 49.0377
rwrist -0.410732
rhand -19.161 4.37193
rfingers 7.12502
rthumb 7.14973 -25.4873
lclavicle -8.74653e-014 -1.18476e-013
lhumerus -11.0416 -15.2537 90.1115
lradius 25.8073
lwrist 14.1816
lhand -15.3348 -8.35839
lfingers 7.12502
lthumb 10.8419 21.3418
rfemur -8.69099 -14.567 29.2431
rtibia 44.8605
rfoot -10.7028 12.7769
rtoes -8.7143
lfemur -26.2275 2.27166 -7.08698
ltibia 71.9912
lfoot 0.248785 -11.7231
ltoes -21.4565
5
root -10.8588 17.5225 10.4974 897.586 34.0269 -169.886
lowerback 27.8057 -6.04291 5.42991
upperback 18.0137 -1.99619 7.23699
thorax 5.1583 0.810011 5.63695
lowerneck -17.7914 -10.9986 -20.6093
upperneck -7.36164 -10.2949 25.1441
head 3.48559 -3.66531 10.607
rclavicle 7.79236e-014 -8.34896e-014
rhumerus -18.8327 6.12303 -77.9227
rradius 49.676
rwrist -0.329047
rhand -19.1063 4.43747
rfingers 7.12502
rthumb 7.20255 -25.42
lclavicle 7.79236e-014 -8.34896e-014
lhumerus -11.4115 -15.2781 90.1965
lradius 25.5837
lwrist 14.17
lhand -15.1789 -8.21461
lfingers 7.12502
lthumb 10.9922 21.4776
rfemur -8.3359 -14.568 29.2715
rtibia 44.7717
rfoot -10.6518 13.0067
rtoes -8.83315
lfemur -26.6941 2.40358 -7.25888
ltibia 70.7673
lfoot 0.660918 -12.0482
ltoes -21.3053
6
root -10.8107 17.5281 10.4454 897.632 34.1762 -169.777
lowerback 27.8172 -6.04085 5.61392
upperback 18.0328 -1.94995 7.20003
thorax 5.16268 0.854816 5.48158
lowerneck -17.7113 -10.977 -20.5925
upperneck -7.37736 -10.282 25.0681
head 3.45679 -3.66859 10.5798
rclavicle 3.26007e-014 -1.03368e-014
rhumerus -18.5111 6.13762 -78.0233
rradius 50.2672
rwrist -0.236329
rhand -19.0521 4.53064
rfingers 7.12502
rthumb 7.2549 -25.325
lclavicle 3.26007e-014 -1.03368e-014
lhumerus -11.8072 -15.3818 90.2538
lradius 25.4374
lwrist 14.32
lhand -15.0135 -8.06577
lfingers 7.12502
lthumb 11.1517 21.6179
rfemur -7.98365 -14.6269 29.2958
rtibia 44.6632
rfoot -10.633 13.2403
rtoes -9.15239
lfemur -27.148 2.54991 -7.44363
ltibia 69.4899
lfoot 1.06484 -12.3612
ltoes -21.836
7
root -10.7613 17.534 10.3924 897.62 34.3211 -169.728
lowerback 27.8178 -6.02578 5.7373
upperback 18.0626 -1.90255 7.15287
thorax 5.18726 0.89556 5.34887
lowerneck -17.5905 -10.9433 -20.5756
upperneck -7.42287 -10.255 24.9948
head 3.4104 -3.6677 10.5569
rclavicle -2.14687e-014 1.90833e-014
rhumerus -18.1974 6.1422 -78.1266
rradius 50.8616
rwrist -0.0713746
rhand -19.0017 4.55609
rfingers 7.12502
rthumb 7.30356 -25.2979
lclavicle -2.14687e-014 1.90833e-014
lhumerus -12.1994 -15.5501 90.3142
lradius 25.3023
lwrist 14.5101
lhand -14.8762 -7.8941
lfingers 7.12502
lthumb 11.2841 21.7824
rfemur -7.59725 -14.6543 29.2683
rtibia 44.5503
rfoot -10.6573 13.4256
rtoes -9.47079
lfemur -27.5098 2.68733 -7.6868
ltibia 68.1491
lfoot 1.4124 -12.6162
ltoes -22.5881
8
root -10.7109 17.5383 10.3393 897.658 34.4759 -169.618
lowerback 27.796 -6.00826 5.90051
upperback 18.0911 -1.84611 7.11722
thorax 5.21942 0.943777 5.2044
lowerneck -17.4888 -10.9258 -20.5681
upperneck -7.44621 -10.2504 24.9415
head 3.3809 -3.67576 10.5388
rclavicle -4.6118e-014 -1.16885e-013
rhumerus -17.9077 6.17491 -78.2122
rradius 51.4643
rwrist 0.0554517
rhand -19.0096 4.52882
rfingers 7.12502
rthumb 7.29587 -25.3254
lclavicle -4.6118e-014 -1.16885e-013
lhumerus -12.5643 -15.6975 90.3817
lradius 25.1485
lwrist 14.689
lhand -14.7384 -7.74368
lfingers 7.12502
lthumb 11.4171 21.9255
rfemur -7.22242 -14.6265 29.3201
rtibia 44.4175
rfoot -10.6752 13.5348
rtoes -9.81348
lfemur -27.8513 2.85173 -7.86755
ltibia 66.7899
lfoot 1.76051 -12.7941
ltoes -23.3074
9
root -10.6594 17.5409 10.2856 897.686 34.6082 -169.539
lowerback 27.7438 -5.98973 6.02381
upperback 18.119 -1.80485 7.07453
thorax 5.26707 0.979816 5.07725
lowerneck -17.3736 -10.8936 -20.5465
upperneck -7.48242 -10.2274 24.8865
head 3.34078 -3.67591 10.5209
rclavicle -3.81667e-014 -1.51076e-014
rhumerus -17.6337 6.18684 -78.3188
rradius 52.0466
rwrist 0.300763
rhand -19.0543 4.53267
rfingers 7.12502
rthumb 7.2527 -25.323
lclavicle -3.81667e-014 -1.51076e-014
lhumerus -12.9401 -15.8968 90.4399
lradius 25.0061
lwrist 14.9501
lhand -14.6445 -7.65166
lfingers 7.12502
lthumb 11.5076 22.0125
rfemur -6.84764 -14.5961 29.3622
rtibia 44.2712
rfoot -10.7106 13.6058
rtoes -10.1548
lfemur -28.1831 3.01937 -8.07681
ltibia 65.4031
lfoot 2.15402 -12.9348
ltoes -24.022
10
root -10.6076 17.5444 10.2312 897.694 34.7424 -169.458
lowerback 27.6972 -5.97034 6.13667
upperback 18.1664 -1.7583 7.03703
thorax 5.33682 1.02024 4.96255
lowerneck -17.3371 -10.8793 -20.5085
upperneck -7.47439 -10.2236 24.8149
head 3.32705 -3.68014 10.4893
rclavicle 9.46215e-014 -9.70069e-014
rhumerus -17.337 6.25367 -78.4055
rradius 52.6226
rwrist 0.523103
rhand -19.1915 4.52887
rfingers 7.12502
rthumb 7.12034 -25.3314
lclavicle 9.46215e-014 -9.70069e-014
lhumerus -13.2575 -16.0746 90.5141
lradius 24.8521
lwrist 15.1598
lhand -14.511 -7.58246
lfingers 7.12502
lthumb 11.6364 22.0744
rfemur -6.42507 -14.4857 29.4114
rtibia 44.0931
rfoot -10.7449 13.593
rtoes -10.3347
lfemur -28.4636 3.16743 -8.27321
ltibia 64.0084
lfoot 2.58407 -12.9934
ltoes -24.411
11
root -10.5543 17.5469 10.1769 897.708 34.8715 -169.41
lowerback 27.6274 -5.93243 6.20386
upperback 18.1958 -1.70945 6.99726
thorax 5.39668 1.05397 4.86837
lowerneck -17.2445 -10.8589 -20.5043
upperneck -7.49493 -10.2127 24.7758
head 3.30015 -3.68363 10.478
rclavicle -2.94201e-014 -4.21423e-014
rhumerus -17.0784 6.30235 -78.5152
rradius 53.1914
rwrist 0.724801
rhand -19.3609 4.55637
rfingers 7.12502
rthumb 6.95681 -25.3093
lclavicle -2.94201e-014 -4.21423e-014
lhumerus -13.5846 -16.233 90.5734
lradius 24.6992
lwrist 15.313
lhand -14.343 -7.52078
lfingers 7.12502
lthumb 11.7984 22.1269
rfemur -6.01703 -14.3866 29.4544
rtibia 43.8878
rfoot -10.8006 13.5669
rtoes -10.6744
lfemur -28.7456 3.31129 -8.48707
ltibia 62.6008
lfoot 3.06444 -13.0117
ltoes -24.5523
